<?xml version="1.0" encoding="UTF-8" standalone="no"?>
<!DOCTYPE svg PUBLIC "-//W3C//DTD SVG 1.1//EN"
 "http://www.w3.org/Graphics/SVG/1.1/DTD/svg11.dtd">
<!-- Generated by graphviz version 2.43.0 (0)
 -->
<!-- Title: %3 Pages: 1 -->
<svg width="1735pt" height="472pt"
 viewBox="0.00 0.00 1735.45 472.13" xmlns="http://www.w3.org/2000/svg" xmlns:xlink="http://www.w3.org/1999/xlink">
<g id="graph0" class="graph" transform="scale(1 1) rotate(0) translate(4 468.13)">
<title>%3</title>
<polygon fill="white" stroke="transparent" points="-4,4 -4,-468.13 1731.45,-468.13 1731.45,4 -4,4"/>
<!-- integer -->
<g id="node1" class="node">
<title>integer</title>
<ellipse fill="none" stroke="black" cx="1274.64" cy="-365.26" rx="35.19" ry="18"/>
<text text-anchor="middle" x="1274.64" y="-361.56" font-family="Times,serif" font-size="14.00">integer</text>
</g>
<!-- any -->
<g id="node2" class="node">
<title>any</title>
<ellipse fill="none" stroke="black" cx="463.64" cy="-446.13" rx="27" ry="18"/>
<text text-anchor="middle" x="463.64" y="-442.43" font-family="Times,serif" font-size="14.00">any</text>
</g>
<!-- integer&#45;&gt;any -->
<g id="edge1" class="edge">
<title>integer&#45;&gt;any</title>
<path fill="none" stroke="black" d="M1240.31,-369.6C1108.66,-382.4 636.62,-428.31 500.58,-441.54"/>
<polygon fill="black" stroke="black" points="499.89,-438.09 490.28,-442.54 500.57,-445.06 499.89,-438.09"/>
</g>
<!-- natural -->
<g id="node3" class="node">
<title>natural</title>
<ellipse fill="none" stroke="black" cx="1374.64" cy="-275.52" rx="35.19" ry="18"/>
<text text-anchor="middle" x="1374.64" y="-271.82" font-family="Times,serif" font-size="14.00">natural</text>
</g>
<!-- natural&#45;&gt;integer -->
<g id="edge2" class="edge">
<title>natural&#45;&gt;integer</title>
<path fill="none" stroke="black" d="M1357.68,-291.41C1341.73,-305.4 1317.67,-326.51 1299.54,-342.41"/>
<polygon fill="black" stroke="black" points="1296.89,-340.08 1291.69,-349.31 1301.51,-345.34 1296.89,-340.08"/>
</g>
<!-- signed(N+1) -->
<g id="node4" class="node">
<title>signed(N+1)</title>
<ellipse fill="none" stroke="black" cx="1255.64" cy="-194.65" rx="55.79" ry="18"/>
<text text-anchor="middle" x="1255.64" y="-190.95" font-family="Times,serif" font-size="14.00">signed(N+1)</text>
</g>
<!-- signed(N+1)&#45;&gt;integer -->
<g id="edge3" class="edge">
<title>signed(N+1)&#45;&gt;integer</title>
<path fill="none" stroke="black" d="M1257.57,-212.75C1260.87,-242.03 1267.63,-302.03 1271.58,-337.1"/>
<polygon fill="black" stroke="black" points="1268.11,-337.58 1272.71,-347.12 1275.07,-336.79 1268.11,-337.58"/>
</g>
<!-- signed(N) -->
<g id="node5" class="node">
<title>signed(N)</title>
<ellipse fill="none" stroke="black" cx="1223.64" cy="-113.78" rx="46.29" ry="18"/>
<text text-anchor="middle" x="1223.64" y="-110.08" font-family="Times,serif" font-size="14.00">signed(N)</text>
</g>
<!-- signed(N)&#45;&gt;signed(N+1) -->
<g id="edge4" class="edge">
<title>signed(N)&#45;&gt;signed(N+1)</title>
<path fill="none" stroke="black" d="M1230.58,-131.9C1234.78,-142.23 1240.21,-155.62 1244.94,-167.28"/>
<polygon fill="black" stroke="black" points="1241.71,-168.62 1248.71,-176.57 1248.19,-165.99 1241.71,-168.62"/>
</g>
<!-- unsigned(N+1) -->
<g id="node6" class="node">
<title>unsigned(N+1)</title>
<ellipse fill="none" stroke="black" cx="1393.64" cy="-194.65" rx="64.19" ry="18"/>
<text text-anchor="middle" x="1393.64" y="-190.95" font-family="Times,serif" font-size="14.00">unsigned(N+1)</text>
</g>
<!-- unsigned(N+1)&#45;&gt;natural -->
<g id="edge5" class="edge">
<title>unsigned(N+1)&#45;&gt;natural</title>
<path fill="none" stroke="black" d="M1389.52,-212.77C1387.08,-222.89 1383.93,-235.95 1381.16,-247.45"/>
<polygon fill="black" stroke="black" points="1377.69,-246.9 1378.75,-257.44 1384.5,-248.54 1377.69,-246.9"/>
</g>
<!-- unsigned(N) -->
<g id="node7" class="node">
<title>unsigned(N)</title>
<ellipse fill="none" stroke="black" cx="1393.64" cy="-113.78" rx="54.69" ry="18"/>
<text text-anchor="middle" x="1393.64" y="-110.08" font-family="Times,serif" font-size="14.00">unsigned(N)</text>
</g>
<!-- unsigned(N)&#45;&gt;signed(N+1) -->
<g id="edge7" class="edge">
<title>unsigned(N)&#45;&gt;signed(N+1)</title>
<path fill="none" stroke="black" d="M1367.36,-129.8C1345.58,-142.25 1314.45,-160.04 1290.58,-173.68"/>
<polygon fill="black" stroke="black" points="1288.77,-170.69 1281.82,-178.69 1292.24,-176.76 1288.77,-170.69"/>
</g>
<!-- unsigned(N)&#45;&gt;unsigned(N+1) -->
<g id="edge6" class="edge">
<title>unsigned(N)&#45;&gt;unsigned(N+1)</title>
<path fill="none" stroke="black" d="M1393.64,-131.9C1393.64,-141.92 1393.64,-154.82 1393.64,-166.23"/>
<polygon fill="black" stroke="black" points="1390.14,-166.57 1393.64,-176.57 1397.14,-166.57 1390.14,-166.57"/>
</g>
<!-- txu -->
<g id="node8" class="node">
<title>txu</title>
<ellipse fill="none" stroke="black" cx="1410.64" cy="-25.46" rx="79.81" ry="25.41"/>
<text text-anchor="start" x="1383.14" y="-29.26" font-family="Times,serif" font-size="14.00">type&#45;of(x)</text>
<text text-anchor="start" x="1362.14" y="-15.26" font-family="Times,serif" font-size="14.00">where 0 ≤ x &lt; 2</text>
<text text-anchor="start" x="1450.14" y="-15.26" font-family="Times,serif" baseline-shift="super" font-size="14.00">N</text>
</g>
<!-- txu&#45;&gt;unsigned(N) -->
<g id="edge8" class="edge">
<title>txu&#45;&gt;unsigned(N)</title>
<path fill="none" stroke="black" d="M1405.81,-50.96C1403.69,-61.77 1401.18,-74.5 1398.99,-85.6"/>
<polygon fill="black" stroke="black" points="1395.52,-85.13 1397.02,-95.61 1402.39,-86.48 1395.52,-85.13"/>
</g>
<!-- txs -->
<g id="node9" class="node">
<title>txs</title>
<ellipse fill="none" stroke="black" cx="1207.64" cy="-25.46" rx="104.8" ry="25.41"/>
<text text-anchor="start" x="1180.14" y="-29.26" font-family="Times,serif" font-size="14.00">type&#45;of(x)</text>
<text text-anchor="start" x="1141.64" y="-15.26" font-family="Times,serif" font-size="14.00">where &#45;2</text>
<text text-anchor="start" x="1190.64" y="-15.26" font-family="Times,serif" baseline-shift="super" font-size="14.00">N&#45;1</text>
<text text-anchor="start" x="1209.64" y="-15.26" font-family="Times,serif" font-size="14.00"> ≤ x &lt; 2</text>
<text text-anchor="start" x="1254.64" y="-15.26" font-family="Times,serif" baseline-shift="super" font-size="14.00">N&#45;1</text>
</g>
<!-- txs&#45;&gt;signed(N) -->
<g id="edge9" class="edge">
<title>txs&#45;&gt;signed(N)</title>
<path fill="none" stroke="black" d="M1212.18,-50.96C1214.18,-61.77 1216.54,-74.5 1218.6,-85.6"/>
<polygon fill="black" stroke="black" points="1215.19,-86.42 1220.46,-95.61 1222.08,-85.14 1215.19,-86.42"/>
</g>
<!-- symbol(~s)\n= type&#45;of(~s) -->
<g id="node10" class="node">
<title>symbol(~s)\n= type&#45;of(~s)</title>
<ellipse fill="none" stroke="black" cx="181.64" cy="-365.26" rx="62.87" ry="26.74"/>
<text text-anchor="middle" x="181.64" y="-369.06" font-family="Times,serif" font-size="14.00">symbol(~s)</text>
<text text-anchor="middle" x="181.64" y="-354.06" font-family="Times,serif" font-size="14.00">= type&#45;of(~s)</text>
</g>
<!-- symbol(~s)\n= type&#45;of(~s)&#45;&gt;any -->
<g id="edge10" class="edge">
<title>symbol(~s)\n= type&#45;of(~s)&#45;&gt;any</title>
<path fill="none" stroke="black" d="M227.89,-383.63C236.41,-386.62 245.25,-389.57 253.64,-392.13 314.31,-410.64 386.22,-427.77 428.2,-437.3"/>
<polygon fill="black" stroke="black" points="427.68,-440.77 438.21,-439.56 429.22,-433.94 427.68,-440.77"/>
</g>
<!-- array(N, T) -->
<g id="node11" class="node">
<title>array(N, T)</title>
<ellipse fill="none" stroke="black" cx="313.64" cy="-365.26" rx="50.89" ry="18"/>
<text text-anchor="middle" x="313.64" y="-361.56" font-family="Times,serif" font-size="14.00">array(N, T)</text>
</g>
<!-- array(N, T)&#45;&gt;any -->
<g id="edge11" class="edge">
<title>array(N, T)&#45;&gt;any</title>
<path fill="none" stroke="black" d="M340.8,-380.54C367.08,-394.36 406.82,-415.25 433.93,-429.51"/>
<polygon fill="black" stroke="black" points="432.47,-432.7 442.95,-434.25 435.73,-426.5 432.47,-432.7"/>
</g>
<!-- array(N, U)\nwhere U &lt;: T -->
<g id="node12" class="node">
<title>array(N, U)\nwhere U &lt;: T</title>
<ellipse fill="none" stroke="black" cx="63.64" cy="-275.52" rx="63.78" ry="26.74"/>
<text text-anchor="middle" x="63.64" y="-279.32" font-family="Times,serif" font-size="14.00">array(N, U)</text>
<text text-anchor="middle" x="63.64" y="-264.32" font-family="Times,serif" font-size="14.00">where U &lt;: T</text>
</g>
<!-- array(N, U)\nwhere U &lt;: T&#45;&gt;array(N, T) -->
<g id="edge12" class="edge">
<title>array(N, U)\nwhere U &lt;: T&#45;&gt;array(N, T)</title>
<path fill="none" stroke="black" d="M111.05,-293.65C119.55,-296.63 128.34,-299.65 136.64,-302.39 188.29,-319.48 202.58,-319.59 253.64,-338.39 260.29,-340.84 267.27,-343.64 274.02,-346.46"/>
<polygon fill="black" stroke="black" points="273.11,-349.88 283.68,-350.59 275.86,-343.44 273.11,-349.88"/>
</g>
<!-- array(N+1, T) -->
<g id="node13" class="node">
<title>array(N+1, T)</title>
<ellipse fill="none" stroke="black" cx="205.64" cy="-275.52" rx="60.39" ry="18"/>
<text text-anchor="middle" x="205.64" y="-271.82" font-family="Times,serif" font-size="14.00">array(N+1, T)</text>
</g>
<!-- array(N+1, T)&#45;&gt;array(N, T) -->
<g id="edge13" class="edge">
<title>array(N+1, T)&#45;&gt;array(N, T)</title>
<path fill="none" stroke="black" d="M225.45,-292.61C242.53,-306.49 267.36,-326.67 286.33,-342.07"/>
<polygon fill="black" stroke="black" points="284.35,-344.98 294.32,-348.57 288.77,-339.54 284.35,-344.98"/>
</g>
<!-- tuple(T1, ..., TN) -->
<g id="node14" class="node">
<title>tuple(T1, ..., TN)</title>
<ellipse fill="none" stroke="black" cx="463.64" cy="-365.26" rx="72.29" ry="18"/>
<text text-anchor="middle" x="463.64" y="-361.56" font-family="Times,serif" font-size="14.00">tuple(T1, ..., TN)</text>
</g>
<!-- tuple(T1, ..., TN)&#45;&gt;any -->
<g id="edge14" class="edge">
<title>tuple(T1, ..., TN)&#45;&gt;any</title>
<path fill="none" stroke="black" d="M463.64,-383.38C463.64,-393.4 463.64,-406.3 463.64,-417.71"/>
<polygon fill="black" stroke="black" points="460.14,-418.05 463.64,-428.05 467.14,-418.05 460.14,-418.05"/>
</g>
<!-- tuple(U1, ..., UN)\nwhere Ui &lt;: Ti -->
<g id="node15" class="node">
<title>tuple(U1, ..., UN)\nwhere Ui &lt;: Ti</title>
<ellipse fill="none" stroke="black" cx="365.64" cy="-275.52" rx="81.13" ry="26.74"/>
<text text-anchor="middle" x="365.64" y="-279.32" font-family="Times,serif" font-size="14.00">tuple(U1, ..., UN)</text>
<text text-anchor="middle" x="365.64" y="-264.32" font-family="Times,serif" font-size="14.00">where Ui &lt;: Ti</text>
</g>
<!-- tuple(U1, ..., UN)\nwhere Ui &lt;: Ti&#45;&gt;tuple(T1, ..., TN) -->
<g id="edge15" class="edge">
<title>tuple(U1, ..., UN)\nwhere Ui &lt;: Ti&#45;&gt;tuple(T1, ..., TN)</title>
<path fill="none" stroke="black" d="M392.94,-300.96C406.86,-313.42 423.7,-328.51 437.46,-340.82"/>
<polygon fill="black" stroke="black" points="435.37,-343.65 445.16,-347.72 440.04,-338.44 435.37,-343.65"/>
</g>
<!-- tuple(T1, ..., TN, TN+1) -->
<g id="node16" class="node">
<title>tuple(T1, ..., TN, TN+1)</title>
<ellipse fill="none" stroke="black" cx="562.64" cy="-275.52" rx="98.28" ry="18"/>
<text text-anchor="middle" x="562.64" y="-271.82" font-family="Times,serif" font-size="14.00">tuple(T1, ..., TN, TN+1)</text>
</g>
<!-- tuple(T1, ..., TN, TN+1)&#45;&gt;tuple(T1, ..., TN) -->
<g id="edge16" class="edge">
<title>tuple(T1, ..., TN, TN+1)&#45;&gt;tuple(T1, ..., TN)</title>
<path fill="none" stroke="black" d="M543.55,-293.44C528.39,-306.88 507.01,-325.82 490.18,-340.74"/>
<polygon fill="black" stroke="black" points="487.5,-338.44 482.33,-347.69 492.14,-343.68 487.5,-338.44"/>
</g>
<!-- record(K1:T1, ..., KN:TN) -->
<g id="node17" class="node">
<title>record(K1:T1, ..., KN:TN)</title>
<ellipse fill="none" stroke="black" cx="796.64" cy="-365.26" rx="105.88" ry="18"/>
<text text-anchor="middle" x="796.64" y="-361.56" font-family="Times,serif" font-size="14.00">record(K1:T1, ..., KN:TN)</text>
</g>
<!-- record(K1:T1, ..., KN:TN)&#45;&gt;any -->
<g id="edge17" class="edge">
<title>record(K1:T1, ..., KN:TN)&#45;&gt;any</title>
<path fill="none" stroke="black" d="M737.49,-380.27C668.17,-396.69 555.56,-423.36 498.77,-436.81"/>
<polygon fill="black" stroke="black" points="497.76,-433.45 488.84,-439.16 499.38,-440.26 497.76,-433.45"/>
</g>
<!-- record(K1:U1, ..., KN:UN)\nwhere Ui &lt;: Ti -->
<g id="node18" class="node">
<title>record(K1:U1, ..., KN:UN)\nwhere Ui &lt;: Ti</title>
<ellipse fill="none" stroke="black" cx="796.64" cy="-275.52" rx="117.26" ry="26.74"/>
<text text-anchor="middle" x="796.64" y="-279.32" font-family="Times,serif" font-size="14.00">record(K1:U1, ..., KN:UN)</text>
<text text-anchor="middle" x="796.64" y="-264.32" font-family="Times,serif" font-size="14.00">where Ui &lt;: Ti</text>
</g>
<!-- record(K1:U1, ..., KN:UN)\nwhere Ui &lt;: Ti&#45;&gt;record(K1:T1, ..., KN:TN) -->
<g id="edge18" class="edge">
<title>record(K1:U1, ..., KN:UN)\nwhere Ui &lt;: Ti&#45;&gt;record(K1:T1, ..., KN:TN)</title>
<path fill="none" stroke="black" d="M796.64,-302.85C796.64,-313.6 796.64,-326.03 796.64,-336.89"/>
<polygon fill="black" stroke="black" points="793.14,-337.1 796.64,-347.1 800.14,-337.1 793.14,-337.1"/>
</g>
<!-- record(K1:T1, ..., KN:TN, KN+1:TN+1) -->
<g id="node19" class="node">
<title>record(K1:T1, ..., KN:TN, KN+1:TN+1)</title>
<ellipse fill="none" stroke="black" cx="1089.64" cy="-275.52" rx="157.07" ry="18"/>
<text text-anchor="middle" x="1089.64" y="-271.82" font-family="Times,serif" font-size="14.00">record(K1:T1, ..., KN:TN, KN+1:TN+1)</text>
</g>
<!-- record(K1:T1, ..., KN:TN, KN+1:TN+1)&#45;&gt;record(K1:T1, ..., KN:TN) -->
<g id="edge19" class="edge">
<title>record(K1:T1, ..., KN:TN, KN+1:TN+1)&#45;&gt;record(K1:T1, ..., KN:TN)</title>
<path fill="none" stroke="black" d="M1036.24,-292.51C985.53,-307.7 909.42,-330.49 856.64,-346.29"/>
<polygon fill="black" stroke="black" points="855.31,-343.04 846.74,-349.26 857.32,-349.74 855.31,-343.04"/>
</g>
<!-- Ti -->
<g id="node20" class="node">
<title>Ti</title>
<ellipse fill="none" stroke="black" cx="1596.64" cy="-25.46" rx="27" ry="18"/>
<text text-anchor="middle" x="1596.64" y="-21.76" font-family="Times,serif" font-size="14.00">Ti</text>
</g>
<!-- union(T1, ..., TN)\nwhere Ti &lt;: U for all 1 ≤ i ≤ N -->
<g id="node21" class="node">
<title>union(T1, ..., TN)\nwhere Ti &lt;: U for all 1 ≤ i ≤ N</title>
<ellipse fill="none" stroke="black" cx="1596.64" cy="-113.78" rx="130.63" ry="26.74"/>
<text text-anchor="middle" x="1596.64" y="-117.58" font-family="Times,serif" font-size="14.00">union(T1, ..., TN)</text>
<text text-anchor="middle" x="1596.64" y="-102.58" font-family="Times,serif" font-size="14.00">where Ti &lt;: U for all 1 ≤ i ≤ N</text>
</g>
<!-- Ti&#45;&gt;union(T1, ..., TN)\nwhere Ti &lt;: U for all 1 ≤ i ≤ N -->
<g id="edge20" class="edge">
<title>Ti&#45;&gt;union(T1, ..., TN)\nwhere Ti &lt;: U for all 1 ≤ i ≤ N</title>
<path fill="none" stroke="black" d="M1596.64,-43.51C1596.64,-52.92 1596.64,-64.97 1596.64,-76.38"/>
<polygon fill="black" stroke="black" points="1593.14,-76.58 1596.64,-86.58 1600.14,-76.58 1593.14,-76.58"/>
</g>
<!-- U -->
<g id="node22" class="node">
<title>U</title>
<ellipse fill="none" stroke="black" cx="1596.64" cy="-194.65" rx="27" ry="18"/>
<text text-anchor="middle" x="1596.64" y="-190.95" font-family="Times,serif" font-size="14.00">U</text>
</g>
<!-- union(T1, ..., TN)\nwhere Ti &lt;: U for all 1 ≤ i ≤ N&#45;&gt;U -->
<g id="edge21" class="edge">
<title>union(T1, ..., TN)\nwhere Ti &lt;: U for all 1 ≤ i ≤ N&#45;&gt;U</title>
<path fill="none" stroke="black" d="M1596.64,-141.04C1596.64,-149.15 1596.64,-158.08 1596.64,-166.26"/>
<polygon fill="black" stroke="black" points="1593.14,-166.43 1596.64,-176.43 1600.14,-166.43 1593.14,-166.43"/>
</g>
</g>
</svg>
